<svg width="43" height="31" viewBox="0 0 43 31" fill="none" xmlns="http://www.w3.org/2000/svg"><path d="M42.7534 9.70079C42.5431 9.44425 42.2293 9.29451 41.9001 9.29451H37.7151C36.6824 6.57054 35.337 3.90162 33.8077 2.89416C28.5173 -0.586222 14.4849 -0.586222 9.19454 2.89416C7.66414 3.90272 6.32421 6.57494 5.28595 9.29451H1.10101C0.768504 9.29451 0.455817 9.44425 0.247726 9.70079C0.0385337 9.95623 -0.0451432 10.2943 0.0231195 10.6191L0.642989 13.6227C0.748686 14.1347 1.2001 14.5002 1.72088 14.5002H2.96062C1.76382 15.8809 1.18359 17.6195 1.17588 19.3591C1.16817 21.5083 1.98402 23.4506 3.47589 24.8247C3.49241 24.839 3.50892 24.8489 3.52434 24.8632V29.0659C3.52434 29.9764 4.26422 30.7174 5.17585 30.7174H9.036C9.94764 30.7174 10.6875 29.9764 10.6875 29.0659V27.3769H32.3125V29.0659C32.3125 29.9764 33.0524 30.7174 33.964 30.7174H37.8241C38.7336 30.7174 39.4757 29.9764 39.4757 29.0659V24.9458C41.0589 23.4957 41.8153 21.5006 41.8252 19.5089C41.8318 17.7098 41.2252 15.9074 39.9579 14.498H41.2802C41.8032 14.498 42.2546 14.1325 42.3581 13.6194L42.9791 10.6169C43.0429 10.2943 42.9626 9.95844 42.7534 9.70079ZM11.0079 5.65227C15.2248 2.87655 27.7752 2.87655 31.9899 5.65227C32.809 6.18958 33.8627 8.36193 34.8283 11.022H8.1717C9.13509 8.36303 10.1888 6.19178 11.0079 5.65227ZM6.06877 19.7731C6.06877 17.9784 7.52431 16.525 9.31786 16.525C11.1136 16.525 12.5669 17.9784 12.5669 19.7731C12.5669 21.5678 11.1136 23.0223 9.31786 23.0223C7.52431 23.0223 6.06877 21.5678 6.06877 19.7731ZM33.7251 23.0223C31.9315 23.0223 30.476 21.5678 30.476 19.7731C30.476 17.9784 31.9315 16.525 33.7251 16.525C35.5208 16.525 36.9742 17.9784 36.9742 19.7731C36.9742 21.5678 35.5186 23.0223 33.7251 23.0223Z" fill="url(#paint0_linear)"/><defs><linearGradient id="paint0_linear" x1="21.5" y1=".284" x2="21.5" y2="30.717" gradientUnits="userSpaceOnUse"><stop stop-color="#7ECBC5"/><stop offset="1" stop-color="#B5E0AD"/></linearGradient></defs></svg>