<svg width="42" height="42" viewBox="0 0 42 42" fill="none" xmlns="http://www.w3.org/2000/svg"><path d="M0.316772 2.88602H1.78694V42H12.0528V40.557C12.0528 40.152 12.0487 39.7577 12.0408 39.373H29.9591C29.9513 39.7577 29.947 40.152 29.947 40.557V42H40.2129V2.88602H41.6831V0H0.316772V2.88602ZM24.1165 2.88602C24.0949 6.99759 24.1408 13.1435 28.3999 20.4608H22.4431V2.88602H24.1165ZM22.4431 23.3468H30.2655C31.0145 24.3989 31.8539 25.4711 32.7957 26.5615C31.8481 27.9894 30.5399 30.9128 30.0992 36.487H22.4431V23.3468ZM17.8835 2.88602H19.557V20.4608H13.6002C17.8592 13.1435 17.905 6.99759 17.8835 2.88602ZM11.7346 23.3468H19.557V36.487H11.9009C11.4603 30.9128 10.1521 27.9894 9.20445 26.5615C10.1462 25.4711 10.9856 24.3989 11.7346 23.3468Z" fill="url(#paint0_linear)"/><defs><linearGradient id="paint0_linear" x1="21" y1="0" x2="21" y2="42" gradientUnits="userSpaceOnUse"><stop stop-color="#7ECBC5"/><stop offset="1" stop-color="#B7E2AC"/></linearGradient></defs></svg>