<svg width="39" height="44" viewBox="0 0 39 44" fill="none" xmlns="http://www.w3.org/2000/svg"><path d="M37.4458 5.27344H32.535V1.31836C32.535 0.590273 31.9447 0 31.2166 0H1.55423C0.826144 0 0.23587 0.590273 0.23587 1.31836V11.8653C0.23587 12.5934 0.826144 13.1837 1.55423 13.1837H31.2167C31.9448 13.1837 32.5351 12.5934 32.5351 11.8653V7.91024H36.1275V14.7035C36.1275 15.304 35.7215 15.8288 35.1403 15.9797L20.4446 19.7937C18.557 20.2836 17.1746 21.8492 16.883 23.7305H19.5916C19.832 23.0615 20.3888 22.5323 21.1069 22.3459L35.8026 18.5319C37.5463 18.0795 38.7641 16.5052 38.7641 14.7036V6.59188C38.7641 5.86371 38.1739 5.27344 37.4458 5.27344Z" fill="url(#paint0_linear)"/><path d="M20.1352 26.3671H16.1513C15.4232 26.3671 14.8329 26.9573 14.8329 27.6854V43.6816C14.8329 44.4097 15.4232 45 16.1513 45H20.1352C20.8633 45 21.4536 44.4097 21.4536 43.6816V27.6854C21.4536 26.9573 20.8634 26.3671 20.1352 26.3671Z" fill="url(#paint1_linear)"/><defs><linearGradient id="paint0_linear" x1="19.5" y1="0" x2="19.5" y2="23.73" gradientUnits="userSpaceOnUse"><stop stop-color="#7ECBC5"/><stop offset="1" stop-color="#B8E2AB"/></linearGradient><linearGradient id="paint1_linear" x1="18.143" y1="26.367" x2="18.143" y2="45" gradientUnits="userSpaceOnUse"><stop stop-color="#7ECBC5"/><stop offset="1" stop-color="#B8E2AB"/></linearGradient></defs></svg>