<svg width="40" height="40" viewBox="0 0 40 40" fill="none" xmlns="http://www.w3.org/2000/svg"><path d="M39.7562 16.0767L36.4229 12.7433C36.2662 12.5867 36.0545 12.5 35.8329 12.5H34.9996V11.6666C34.9996 11.445 34.9112 11.2333 34.7562 11.0766L28.0897 4.41008C26.753 3.07353 24.5131 0.833557 19.9998 0.833557C15.4898 0.833557 13.4215 2.90189 11.9098 4.41016C11.6715 4.64851 11.5999 5.00679 11.7299 5.3185C11.8582 5.63014 12.1632 5.8335 12.4998 5.8335C19.2214 5.8335 19.9998 8.68682 19.9998 10.8334C19.9998 12.6168 18.9898 13.975 18.3448 14.6668L23.7897 20.1117C25.2631 19.1151 27.3563 17.9384 28.333 18.0251V19.1667C28.333 19.3883 28.4214 19.6001 28.5764 19.7567L32.743 23.9233C32.8996 24.0783 33.1113 24.1666 33.333 24.1666H33.3613C33.593 24.16 33.8097 24.0566 33.9597 23.8833L39.793 17.2167C40.0829 16.885 40.0662 16.3884 39.7562 16.0767Z" fill="url(#paint0_linear)"/><path d="M1.25999 31.7282C0.448354 32.5398 0 33.6198 0 34.8664C0 37.2381 1.92834 39.1664 4.29995 39.1664C5.5083 39.1664 6.66828 38.653 7.48155 37.7598L22.5281 21.2083L17.1548 15.8334L1.25999 31.7282Z" fill="url(#paint1_linear)"/><defs><linearGradient id="paint0_linear" x1="25.833" y1=".834" x2="25.833" y2="24.167" gradientUnits="userSpaceOnUse"><stop stop-color="#7ECBC5"/><stop offset="1" stop-color="#B6E1AC"/></linearGradient><linearGradient id="paint1_linear" x1="11.264" y1="15.833" x2="11.264" y2="39.166" gradientUnits="userSpaceOnUse"><stop stop-color="#7ECBC5"/><stop offset="1" stop-color="#B6E1AC"/></linearGradient></defs></svg>