<svg width="39" height="39" viewBox="0 0 39 39" fill="none" xmlns="http://www.w3.org/2000/svg"><path d="M6.36631 12.7402H1.27329C0.573118 12.7402 0 13.3105 0 14.0134V36.9322C0 37.6348 0.570605 38.2052 1.27329 38.2052H6.36631C7.06899 38.2052 7.6396 37.6348 7.6396 36.9322V14.0134C7.6396 13.3105 7.0664 12.7402 6.36631 12.7402Z" fill="url(#paint0_linear)"/><path d="M35.8211 12.7402C35.616 12.7055 26.0148 12.7402 26.0148 12.7402L27.3558 9.08153C28.2812 6.5546 27.6821 2.69626 25.1146 1.32456C24.2786 0.877882 23.1106 0.653556 22.1688 0.890603C21.6288 1.02649 21.1542 1.38405 20.8713 1.86309C20.5459 2.41404 20.5795 3.05716 20.4637 3.66806C20.1699 5.21755 19.4377 6.6908 18.3039 7.79659C16.3271 9.72458 10.1862 15.2867 10.1862 15.2867V35.6589H31.4071C34.2706 35.6605 36.1472 32.4628 34.7348 29.9651C36.4183 28.8869 36.9941 26.6158 36.0081 24.8721C37.6917 23.7939 38.2674 21.5228 37.2814 19.7791C40.1862 17.9187 39.215 13.3143 35.8211 12.7402Z" fill="url(#paint1_linear)"/><defs><linearGradient id="paint0_linear" x1="3.82" y1="12.74" x2="3.82" y2="38.205" gradientUnits="userSpaceOnUse"><stop stop-color="#7ECBC5"/><stop offset="1" stop-color="#B7E1AC"/></linearGradient><linearGradient id="paint1_linear" x1="24.593" y1=".795" x2="24.593" y2="35.659" gradientUnits="userSpaceOnUse"><stop stop-color="#7ECBC5"/><stop offset="1" stop-color="#B7E1AC"/></linearGradient></defs></svg>