<svg width="41" height="45" viewBox="0 0 41 45" fill="none" xmlns="http://www.w3.org/2000/svg"><path d="M38.9834 13.3122C38.9834 9.90029 36.3943 7.09403 33.0736 6.74935C32.1416 4.23602 29.7296 2.44116 26.8912 2.44116C25.6488 2.44116 24.4908 2.79094 23.499 3.38778C22.371 1.36781 20.2148 0 17.7365 0C14.4507 0 11.7333 2.40473 11.2291 5.54843C10.9609 5.51566 10.6898 5.49303 10.4129 5.49303C6.76864 5.49303 3.81371 8.44728 3.81371 12.0923C3.81371 12.2708 3.82681 12.4457 3.84068 12.6206C1.99271 13.7902 0.762604 15.8466 0.762604 18.1952C0.762604 20.2714 1.72309 22.1208 3.22197 23.3305C3.21542 23.4493 3.20376 23.5673 3.20376 23.6876C3.20376 27.3319 6.158 30.2868 9.80297 30.2868C10.8953 30.2868 11.9228 30.0172 12.8301 29.5479C14.0871 30.4508 15.887 31.5803 16.7585 31.3551C16.7585 31.3551 17.0828 36.3774 17.0128 37.6527C16.8795 40.0793 16.1515 42.7807 15.6392 44.9668H23.5735C23.5735 44.9668 22.4039 40.0932 22.3528 38.466C22.3018 36.8387 22.8615 33.8422 22.8615 33.8422L25.6139 30.9952C26.6733 31.7195 27.953 32.1313 29.3332 32.1313C32.745 32.1313 35.5513 29.5356 35.896 26.2148C38.4092 25.2828 40.2041 22.8642 40.2041 20.0258C40.2041 18.3498 39.5745 16.8253 38.5455 15.6609C38.8239 14.9306 38.9834 14.1407 38.9834 13.3122ZM14.3545 28.4584C14.8835 27.9534 15.3273 27.3632 15.6661 26.7081L16.9618 29.4225C16.9611 29.4226 16.2564 29.7337 14.3545 28.4584ZM19.199 30.1345C18.5285 30.2562 17.3867 28.1917 16.5763 26.5134C17.4748 26.9718 18.4892 27.2356 19.5677 27.2356C19.8446 27.2356 20.1164 27.2131 20.3846 27.1795C20.1762 28.5226 19.8089 30.023 19.199 30.1345ZM22.0475 31.4556C20.4968 31.8863 21.4252 28.6741 21.8697 26.8144C22.1911 26.6949 22.5023 26.5543 22.7981 26.3874C22.9766 27.7428 23.5654 28.9656 24.4377 29.9325C23.682 30.6038 22.8119 31.2436 22.0475 31.4556Z" fill="url(#paint0_linear)"/><defs><linearGradient id="paint0_linear" x1="20.483" y1="0" x2="20.483" y2="44.967" gradientUnits="userSpaceOnUse"><stop stop-color="#7ECBC5"/><stop offset="1" stop-color="#B6E1AC"/></linearGradient></defs></svg>