<svg width="46" height="42" viewBox="0 0 46 42" fill="none" xmlns="http://www.w3.org/2000/svg"><path d="M6.25477 40.35C6.25477 40.35 6.21391 41.3782 7.21835 41.3782C8.46795 41.3782 18.8137 41.3646 18.8137 41.3646L18.8307 31.8633C18.8307 31.8633 18.6673 30.297 20.1876 30.297H24.9987C26.7964 30.297 26.6858 31.8633 26.6858 31.8633L26.6654 41.334C26.6654 41.334 36.4748 41.334 38.0155 41.334C39.2907 41.334 39.2328 40.0537 39.2328 40.0537V22.5373L23.2366 8.30829L6.25477 22.5373V40.35Z" fill="url(#paint0_linear)"/><path d="M0 21.2128C0 21.2128 1.44197 23.8703 4.58638 21.2128L23.3779 5.3154L40.9965 21.1141C44.6363 23.7392 46 21.1141 46 21.1141L23.3779 0.621765L0 21.2128Z" fill="url(#paint1_linear)"/><path d="M40.5692 5.27795H36.0373L36.056 10.7734L40.5692 14.6022V5.27795Z" fill="url(#paint2_linear)"/><defs><linearGradient id="paint0_linear" x1="22.744" y1="8.308" x2="22.744" y2="41.378" gradientUnits="userSpaceOnUse"><stop stop-color="#7ECBC5"/><stop offset="1" stop-color="#B7E2AC"/></linearGradient><linearGradient id="paint1_linear" x1="23" y1=".622" x2="23" y2="22.394" gradientUnits="userSpaceOnUse"><stop stop-color="#7ECBC5"/><stop offset="1" stop-color="#B7E2AC"/></linearGradient><linearGradient id="paint2_linear" x1="38.303" y1="5.278" x2="38.303" y2="14.602" gradientUnits="userSpaceOnUse"><stop stop-color="#7ECBC5"/><stop offset="1" stop-color="#B7E2AC"/></linearGradient></defs></svg>