<svg width="31" height="43" viewBox="0 0 31 43" fill="none" xmlns="http://www.w3.org/2000/svg"><path d="M26.2618 0C26.2618 0 22.724 3.43241 18.8977 4.81625C-9.43665 15.0649 2.51316 35.0367 2.90301 35.1025C2.90301 35.1025 4.49187 32.3356 6.63816 30.7574C20.2577 20.7451 23.0258 9.22035 23.0258 9.22035C23.0258 9.22035 19.9696 23.0883 7.853 31.7173C5.17688 33.6221 3.36483 38.3123 2.59778 43C2.59778 43 4.49475 42.2336 5.31047 42.026C5.62857 39.9502 6.29362 37.9625 7.41801 36.1869C24.3524 38.2031 29.8988 24.5576 30.6233 19.7995C32.3335 8.56193 26.2618 0 26.2618 0Z" fill="url(#paint0_linear)"/><defs><linearGradient id="paint0_linear" x1="15.5" y1="0" x2="15.5" y2="43" gradientUnits="userSpaceOnUse"><stop stop-color="#7ECBC5"/><stop offset="1" stop-color="#B7E1AC"/></linearGradient></defs></svg>