<svg width="19" height="19" viewBox="0 0 19 19" fill="none" xmlns="http://www.w3.org/2000/svg"><path d="M15.0161 11.7698C14.6271 11.3648 14.1579 11.1483 13.6607 11.1483C13.1674 11.1483 12.6942 11.3608 12.2892 11.7658L11.022 13.029C10.9178 12.9728 10.8135 12.9207 10.7133 12.8686C10.5689 12.7964 10.4326 12.7282 10.3163 12.656C9.12929 11.9022 8.05058 10.9197 7.01598 9.64849C6.51472 9.0149 6.17787 8.48156 5.93325 7.94019C6.26208 7.63944 6.56685 7.32665 6.86359 7.0259C6.97588 6.91361 7.08816 6.79732 7.20044 6.68504C8.04256 5.84292 8.04256 4.75218 7.20044 3.91006L6.10569 2.81531C5.98138 2.691 5.85305 2.56268 5.73275 2.43436C5.49215 2.18573 5.23951 1.92909 4.97886 1.68848C4.58988 1.30351 4.12471 1.099 3.63548 1.099C3.14625 1.099 2.67306 1.30351 2.27205 1.68848C2.26804 1.69249 2.26804 1.69249 2.26403 1.6965L0.900604 3.07196C0.387314 3.58525 0.0945782 4.21082 0.0304169 4.93665C-0.065825 6.10759 0.279042 7.19833 0.543707 7.91212C1.19334 9.66453 2.16378 11.2886 3.61142 13.029C5.36783 15.1263 7.48115 16.7824 9.89521 17.9494C10.8175 18.3865 12.0486 18.9038 13.4241 18.992C13.5083 18.996 13.5965 19 13.6767 19C14.603 19 15.381 18.6672 15.9905 18.0055C15.9945 17.9975 16.0026 17.9935 16.0066 17.9854C16.2151 17.7328 16.4557 17.5042 16.7083 17.2596C16.8808 17.0952 17.0572 16.9228 17.2297 16.7423C17.6266 16.3293 17.8352 15.8481 17.8352 15.3548C17.8352 14.8576 17.6226 14.3804 17.2176 13.9794L15.0161 11.7698ZM16.4517 15.9924C16.4477 15.9924 16.4477 15.9964 16.4517 15.9924C16.2953 16.1609 16.1349 16.3132 15.9625 16.4817C15.7018 16.7303 15.4371 16.9909 15.1885 17.2837C14.7835 17.7168 14.3063 17.9213 13.6807 17.9213C13.6206 17.9213 13.5564 17.9213 13.4963 17.9173C12.3053 17.8411 11.1985 17.3759 10.3684 16.9789C8.0987 15.8802 6.10569 14.3202 4.44953 12.3433C3.08209 10.6951 2.16779 9.17129 1.56227 7.53518C1.18933 6.53667 1.05299 5.75871 1.11314 5.02487C1.15324 4.55569 1.33369 4.16671 1.66653 3.83387L3.03397 2.46644C3.23046 2.28197 3.43899 2.18172 3.6435 2.18172C3.89613 2.18172 4.10065 2.3341 4.22897 2.46243C4.23298 2.46644 4.23699 2.47045 4.241 2.47446C4.48562 2.70303 4.7182 2.93963 4.96282 3.19226C5.08713 3.32058 5.21545 3.44891 5.34377 3.58124L6.43853 4.67599C6.86359 5.10106 6.86359 5.49405 6.43853 5.91912C6.32223 6.03541 6.20995 6.1517 6.09366 6.26398C5.75681 6.60885 5.43601 6.92965 5.08713 7.24244C5.07911 7.25046 5.07109 7.25447 5.06708 7.26249C4.72221 7.60736 4.78637 7.94421 4.85855 8.17278C4.86256 8.18481 4.86657 8.19684 4.87058 8.20887C5.1553 8.8986 5.55631 9.54824 6.16584 10.3222L6.16985 10.3262C7.27663 11.6896 8.44357 12.7523 9.7308 13.5663C9.89521 13.6706 10.0636 13.7548 10.224 13.835C10.3684 13.9072 10.5047 13.9754 10.621 14.0475C10.6371 14.0556 10.6531 14.0676 10.6692 14.0756C10.8055 14.1438 10.9338 14.1759 11.0662 14.1759C11.399 14.1759 11.6075 13.9673 11.6757 13.8992L13.0471 12.5277C13.1835 12.3914 13.4 12.227 13.6527 12.227C13.9013 12.227 14.1058 12.3834 14.2301 12.5197C14.2341 12.5237 14.2341 12.5237 14.2381 12.5277L16.4477 14.7373C16.8607 15.1463 16.8607 15.5674 16.4517 15.9924Z" fill="#1D3961"/><path d="M10.2681 4.51961C11.3188 4.69605 12.2732 5.1933 13.0351 5.95522C13.797 6.71713 14.2902 7.67153 14.4707 8.72217C14.5148 8.98684 14.7434 9.1713 15.004 9.1713C15.0361 9.1713 15.0642 9.16729 15.0963 9.16328C15.393 9.11516 15.5895 8.83445 15.5414 8.53771C15.3248 7.26651 14.7233 6.1076 13.805 5.18929C12.8867 4.27098 11.7278 3.66947 10.4566 3.45293C10.1598 3.40481 9.88315 3.6013 9.83102 3.89404C9.77889 4.18677 9.97137 4.47149 10.2681 4.51961Z" fill="#1D3961"/><path d="M18.9782 8.3813C18.6213 6.28804 17.6348 4.38325 16.119 2.86744C14.6032 1.35163 12.6984 0.36515 10.6051 0.00825334C10.3124 -0.0438777 10.0357 0.156626 9.98356 0.449362C9.93544 0.746108 10.1319 1.0228 10.4287 1.07493C12.2974 1.39173 14.0017 2.27796 15.3571 3.62936C16.7125 4.98476 17.5947 6.68905 17.9115 8.55774C17.9556 8.82241 18.1842 9.00687 18.4448 9.00687C18.4769 9.00687 18.505 9.00286 18.5371 8.99885C18.8298 8.95474 19.0303 8.67404 18.9782 8.3813Z" fill="#1D3961"/></svg>